<svg version="1" xmlns="http://www.w3.org/2000/svg" width="2666.667" height="2666.667" viewBox="0 0 2000.000000 2000.000000"><path d="M944.5 1.1C717.8 14.7 512 99.1 340 248.9c-20.5 17.8-72.9 70.3-91.2 91.3C167.6 433.3 106 536.1 63.7 648.7c-30.5 81-50.3 166-58.6 251.3-3.9 39.3-4.5 54-4.5 100 0 45.9.7 61.1 4.5 100 19.8 202.7 103.3 396.9 237.3 552.4 38.8 44.9 86.5 91 131.6 127.1 84.2 67.4 177.1 120.3 276 157.3 82.4 30.7 167.6 50.4 254.5 58.6 35.2 3.4 51.2 4 95.5 4s60.3-.6 95.5-4c164.5-15.6 322.8-72.2 460.8-164.7 83.6-56 160.2-126.3 223.3-204.8 99.3-123.5 168.1-269.5 199.9-423.8 14.1-68.8 20-127.9 20-202.1 0-45-.8-62.8-4.6-100-14.6-146.9-60.6-285.6-137.4-414.5-20.3-34.1-52.9-80.5-79.8-113.9-36.3-44.9-82-92-125.6-129.4-119.8-103.1-260.4-175.8-412.6-213.3-55.1-13.6-111.5-22.3-175-26.9-19.6-1.5-100.8-2.1-120-.9zM1066 174.4c97.9 8.3 188.7 31.8 275.3 71 126.5 57.4 237.4 146.4 321.2 258.1 88.1 117.4 143 254.6 159.9 400 22.8 195.4-24.2 391.9-132.5 554.2-65 97.3-148.1 178.8-246.5 241.5-168.4 107.3-370.3 149.5-569.4 119.2-148.5-22.6-288.1-85.7-404.5-182.9-89-74.3-161.4-166.4-212.5-270-67.9-137.9-95.5-288.4-81.4-443C196.8 690.6 316.5 477.4 505 336.2c128-96 278.6-151.6 442-163.2 19.2-1.3 97.3-.4 119 1.4z"/><path d="M949 475.8v73.9l-9.7 1.2c-48.1 6.1-96.8 23.6-130.2 46.8-54.7 38.1-86.8 92.3-97.1 164-5.6 39.2-4.2 99.7 3.1 128.1 4.2 16.6 12.7 33.5 23.5 47 8.7 10.9 29.9 31.1 42.3 40.3 52.5 39 159 82.2 286.6 116.3 29.1 7.8 48 19.1 71.5 42.6 17.8 17.7 21.5 27.1 21.4 54-.2 39.7-12.1 69.1-32.2 79.8-25.4 13.5-65.7 21.2-111.8 21.2-83.7 0-160-24.1-199.5-63-5.3-5.2-10.9-11.3-12.6-13.4l-3-3.9-38.9 35.9c-21.5 19.7-49.7 45.7-62.7 57.7l-23.7 21.8 1.5 2.9c6 11.6 27 33.4 44.5 46.2 43 31.2 106.5 56.1 181 70.7 17.7 3.5 39.8 7.1 43.5 7.1h2.5v145h102v-138.9l4.3-.5c2.3-.3 7.8-.8 12.2-1.1 10.9-.9 34-4.8 46.4-8 59.2-15 114-47.9 163.2-98.2 55.2-56.3 81.2-131.8 74.9-217.8-4.7-62.8-26.3-113.6-63.6-149.5-40.3-38.7-105-68.7-215.4-99.9-56-15.8-85.8-25.4-114-36.6-27.8-11.1-41.7-19.2-52.4-30.5-7.1-7.6-10.5-13.3-13.1-22.4-2.4-8.1-1.7-24.8 1.3-33.1 7.4-20.2 29.7-37.9 57.4-45.5 16-4.3 25.1-5.2 58.9-5.7 60.7-1 90.8 3.4 124.2 17.8 15.2 6.6 34.4 18.4 50.2 30.9l7.9 6.3 4-4.4c2.3-2.5 26.4-28.7 53.6-58.4 27.2-29.6 49.5-54.2 49.5-54.6 0-1.5-18.6-19.8-26.5-26.2-46.5-37.5-121.1-63.7-205.7-72.3l-17.3-1.7V402H949v73.8z"/></svg>